<svg width="203" height="68" viewBox="0 0 203 68" fill="none" xmlns="http://www.w3.org/2000/svg">
<g clip-path="url(#clip0)">
<path d="M186.784 0.0500254H16.1704C15.5485 0.0500254 14.9341 0.0500254 14.3138 0.0534204C13.7946 0.0568153 13.2795 0.0666778 12.7553 0.0749786C11.6165 0.0883918 10.4803 0.188671 9.35676 0.374943C8.23476 0.565271 7.1479 0.924093 6.13295 1.43927C5.11924 1.95881 4.19299 2.6339 3.38779 3.44004C2.57837 4.24392 1.90365 5.1731 1.38958 6.19184C0.874096 7.20855 0.516657 8.29806 0.329609 9.42272C0.140783 10.546 0.0391739 11.6822 0.0256937 12.8211C0.00995527 13.3416 0.00829323 13.8637 0 14.3843V53.6206C0.00829323 54.1477 0.00995527 54.6583 0.0256937 55.1856C0.039178 56.3244 0.140787 57.4606 0.329609 58.5838C0.516141 59.7091 0.873601 60.7992 1.38958 61.8163C1.90342 62.8318 2.57823 63.7572 3.38779 64.5566C4.18994 65.3663 5.11679 66.0419 6.13295 66.5574C7.14789 67.074 8.23463 67.4349 9.35676 67.6282C10.4805 67.813 11.6166 67.9133 12.7553 67.9283C13.2795 67.9399 13.7946 67.9465 14.3138 67.9465C14.934 67.9499 15.5485 67.9499 16.1704 67.9499H186.784C187.393 67.9499 188.013 67.9499 188.622 67.9465C189.139 67.9465 189.669 67.9399 190.186 67.9283C191.322 67.9141 192.456 67.8138 193.578 67.6282C194.703 67.4336 195.794 67.0727 196.814 66.5574C197.829 66.0416 198.755 65.366 199.557 64.5566C200.364 63.754 201.04 62.8293 201.56 61.8163C202.073 60.7985 202.427 59.7084 202.61 58.5838C202.8 57.4604 202.905 56.3245 202.925 55.1856C202.932 54.6583 202.932 54.1477 202.932 53.6206C202.945 53.0039 202.945 52.3906 202.945 51.7639V16.2376C202.945 15.6159 202.945 14.9993 202.932 14.3843C202.932 13.8637 202.932 13.3416 202.925 12.821C202.905 11.682 202.8 10.546 202.61 9.42265C202.426 8.29864 202.072 7.20922 201.56 6.19177C200.514 4.14981 198.854 2.48767 196.814 1.43912C195.794 0.925199 194.703 0.566472 193.578 0.37479C192.456 0.187697 191.322 0.0873835 190.186 0.0747409C189.669 0.0664571 189.139 0.0565098 188.622 0.0531997C188.013 0.0498047 187.393 0.0498047 186.784 0.0498047V0.0500254Z" fill="#A6A6A6"/>
<path d="M14.3219 66.4644C13.8052 66.4644 13.301 66.4578 12.7883 66.4462C11.7263 66.4324 10.6667 66.3398 9.61833 66.1694C8.64076 66.0008 7.69377 65.6874 6.80857 65.2393C5.93149 64.7949 5.13153 64.2123 4.43932 63.5136C3.73709 62.8232 3.15246 62.0225 2.70858 61.1431C2.25981 60.258 1.94924 59.3093 1.78767 58.33C1.6132 57.2777 1.5188 56.2137 1.5053 55.1472C1.49455 54.7892 1.48047 53.5972 1.48047 53.5972V14.3841C1.48047 14.3841 1.49546 13.2104 1.50538 12.8656C1.51832 11.8007 1.61216 10.7384 1.78611 9.68777C1.94797 8.70581 2.25879 7.75436 2.7078 6.86636C3.15004 5.98759 3.73144 5.18623 4.42943 4.49335C5.12664 3.79388 5.92917 3.20822 6.80774 2.75771C7.6909 2.31107 8.63611 1.99982 9.6117 1.83437C10.6635 1.66219 11.7268 1.5691 12.7925 1.55588L14.3228 1.53516H188.614L190.162 1.55671C191.218 1.56927 192.272 1.66153 193.314 1.83271C194.3 2.00023 195.255 2.31365 196.148 2.76268C197.908 3.67058 199.34 5.10697 200.244 6.87051C200.685 7.75237 200.991 8.69606 201.151 9.66954C201.327 10.7288 201.426 11.7995 201.446 12.8731C201.451 13.3538 201.451 13.8702 201.451 14.3841C201.464 15.0206 201.464 15.6265 201.464 16.2374V51.7637C201.464 52.3804 201.464 52.9822 201.451 53.5889C201.451 54.1409 201.451 54.6466 201.444 55.167C201.425 56.2215 201.328 57.2731 201.155 58.3134C200.996 59.2997 200.687 60.2558 200.239 61.1482C199.792 62.018 199.21 62.8118 198.516 63.5004C197.823 64.2028 197.022 64.7889 196.143 65.2361C195.252 65.6876 194.299 66.0022 193.314 66.1694C192.266 66.3407 191.206 66.4333 190.144 66.4462C189.647 66.4578 189.127 66.4644 188.622 66.4644L186.784 66.4678L14.3219 66.4644Z" fill="black"/>
<path d="M42.0077 34.5102C42.0259 33.0934 42.4019 31.7042 43.1007 30.4719C43.7995 29.2396 44.7983 28.2042 46.0043 27.4621C45.2382 26.367 44.2275 25.4657 43.0525 24.8299C41.8775 24.1941 40.5706 23.8413 39.2355 23.7995C36.3876 23.5003 33.6266 25.5052 32.1754 25.5052C30.6961 25.5052 28.4616 23.8292 26.0555 23.8787C24.4992 23.9291 22.9824 24.3821 21.653 25.1936C20.3236 26.0051 19.2269 27.1474 18.4697 28.5093C15.1897 34.1932 17.6363 42.5467 20.7782 47.1411C22.3502 49.3909 24.1874 51.904 26.5913 51.8149C28.9437 51.7172 29.8223 50.3135 32.6618 50.3135C35.475 50.3135 36.2993 51.8149 38.752 51.7582C41.2762 51.7172 42.8666 49.4984 44.3834 47.2273C45.5129 45.6243 46.382 43.8526 46.9586 41.9778C45.4921 41.357 44.2406 40.3178 43.3602 38.9899C42.4798 37.6619 42.0094 36.104 42.0077 34.5102Z" fill="#F5F5F5"/>
<path d="M37.3752 20.7779C38.7515 19.1241 39.4295 16.9986 39.2653 14.8525C37.1626 15.0736 35.2203 16.0795 33.8254 17.6697C33.1434 18.4466 32.6211 19.3504 32.2882 20.3295C31.9554 21.3085 31.8186 22.3437 31.8857 23.3757C32.9375 23.3865 33.9779 23.1583 34.9288 22.7084C35.8797 22.2584 36.7161 21.5983 37.3752 20.7779Z" fill="#F5F5F5"/>
<path d="M71.7443 46.1195H63.7167L61.7889 51.8171H58.3887L65.9923 30.7375H69.525L77.1287 51.8171H73.6705L71.7443 46.1195ZM64.5481 43.4904H70.9113L67.7745 34.2436H67.6867L64.5481 43.4904Z" fill="#F5F5F5"/>
<path d="M93.5496 44.1335C93.5496 48.9093 90.9958 51.9777 87.1418 51.9777C86.1655 52.0289 85.1946 51.8038 84.3402 51.3282C83.4857 50.8527 82.7824 50.1459 82.3106 49.2889H82.2377V56.9011H79.0859V36.4483H82.1367V39.0045H82.1947C82.6881 38.1516 83.4034 37.4485 84.2643 36.97C85.1252 36.4916 86.0996 36.2557 87.0838 36.2875C90.9808 36.2875 93.5496 39.3708 93.5496 44.1335ZM90.3101 44.1335C90.3101 41.022 88.7036 38.9763 86.2524 38.9763C83.8443 38.9763 82.2245 41.065 82.2245 44.1335C82.2245 47.2301 83.8443 49.3039 86.2524 49.3039C88.7036 49.3039 90.3101 47.2732 90.3101 44.1335Z" fill="#F5F5F5"/>
<path d="M110.45 44.1334C110.45 48.9093 107.896 51.9777 104.042 51.9777C103.066 52.0288 102.095 51.8038 101.241 51.3282C100.386 50.8527 99.6828 50.1459 99.211 49.2889H99.1381V56.9011H95.9863V36.4483H99.037V39.0045H99.095C99.5885 38.1515 100.304 37.4485 101.165 36.97C102.026 36.4916 103 36.2557 103.984 36.2875C107.881 36.2875 110.45 39.3708 110.45 44.1334ZM107.21 44.1334C107.21 41.0219 105.604 38.9763 103.153 38.9763C100.745 38.9763 99.1249 41.065 99.1249 44.1334C99.1249 47.2301 100.745 49.3039 103.153 49.3039C105.604 49.3039 107.21 47.2732 107.21 44.1334H107.21Z" fill="#F5F5F5"/>
<path d="M121.619 45.9437C121.852 48.0341 123.881 49.4066 126.654 49.4066C129.31 49.4066 131.222 48.034 131.222 46.1492C131.222 44.513 130.069 43.5333 127.339 42.8619L124.61 42.2038C120.743 41.2689 118.947 39.4586 118.947 36.5212C118.947 32.8842 122.114 30.386 126.611 30.386C131.061 30.386 134.112 32.8842 134.214 36.5212H131.033C130.842 34.4175 129.105 33.1477 126.566 33.1477C124.027 33.1477 122.29 34.4325 122.29 36.3024C122.29 37.7927 123.399 38.6696 126.114 39.3409L128.434 39.9111C132.755 40.934 134.551 42.6713 134.551 45.7546C134.551 49.6983 131.412 52.1682 126.42 52.1682C121.75 52.1682 118.596 49.7563 118.393 45.9435L121.619 45.9437Z" fill="#F5F5F5"/>
<path d="M141.352 32.8113V36.4483H144.272V38.9465H141.352V47.419C141.352 48.7352 141.937 49.3486 143.221 49.3486C143.567 49.3426 143.913 49.3182 144.257 49.2756V51.7589C143.68 51.8668 143.094 51.9157 142.507 51.9047C139.398 51.9047 138.186 50.736 138.186 47.7555V38.9465H135.953V36.4483H138.186V32.8113H141.352Z" fill="#F5F5F5"/>
<path d="M145.965 44.1334C145.965 39.2979 148.81 36.2593 153.247 36.2593C157.699 36.2593 160.531 39.2978 160.531 44.1334C160.531 48.9822 157.714 52.0075 153.247 52.0075C148.782 52.0075 145.965 48.9822 145.965 44.1334ZM157.32 44.1334C157.32 40.8163 155.801 38.8586 153.247 38.8586C150.693 38.8586 149.176 40.8312 149.176 44.1334C149.176 47.4637 150.693 49.4066 153.247 49.4066C155.801 49.4066 157.32 47.4637 157.32 44.1334H157.32Z" fill="#F5F5F5"/>
<path d="M163.129 36.4482H166.135V39.064H166.208C166.411 38.247 166.889 37.525 167.562 37.0194C168.235 36.5137 169.061 36.2552 169.901 36.2873C170.264 36.2861 170.627 36.3256 170.981 36.405V39.3558C170.523 39.2155 170.044 39.1511 169.565 39.1651C169.107 39.1465 168.651 39.2274 168.227 39.402C167.803 39.5766 167.422 39.841 167.11 40.1769C166.798 40.5128 166.562 40.9124 166.419 41.3481C166.276 41.7838 166.229 42.2453 166.281 42.701V51.8168H163.129L163.129 36.4482Z" fill="#F5F5F5"/>
<path d="M185.513 47.3029C185.089 50.0929 182.374 52.0075 178.901 52.0075C174.435 52.0075 171.662 49.012 171.662 44.2063C171.662 39.3857 174.449 36.2593 178.769 36.2593C183.017 36.2593 185.689 39.1802 185.689 43.84V44.9208H174.844V45.1114C174.794 45.6771 174.864 46.2468 175.051 46.783C175.238 47.3191 175.537 47.8093 175.927 48.2211C176.318 48.6328 176.792 48.9566 177.317 49.171C177.842 49.3854 178.407 49.4855 178.974 49.4646C179.719 49.5344 180.467 49.3618 181.105 48.9723C181.744 48.5828 182.24 47.9973 182.52 47.3029L185.513 47.3029ZM174.859 42.7161H182.535C182.563 42.2075 182.486 41.6986 182.309 41.2212C182.131 40.7439 181.857 40.3084 181.503 39.9421C181.15 39.5759 180.724 39.2867 180.254 39.0928C179.783 38.899 179.278 38.8045 178.769 38.8155C178.256 38.8124 177.747 38.9111 177.272 39.1059C176.797 39.3007 176.365 39.5876 176.002 39.9503C175.638 40.3129 175.35 40.744 175.154 41.2187C174.958 41.6935 174.857 42.2024 174.859 42.7161V42.7161Z" fill="#F5F5F5"/>
<path d="M64.1513 14.8709C64.8121 14.8234 65.4752 14.9233 66.0927 15.1634C66.7102 15.4035 67.2668 15.7778 67.7223 16.2592C68.1778 16.7407 68.5209 17.3173 68.7268 17.9475C68.9327 18.5778 68.9962 19.2459 68.9129 19.9037C68.9129 23.1395 67.1656 24.9996 64.1513 24.9996H60.4961V14.8709H64.1513ZM62.0678 23.5671H63.9758C64.4479 23.5954 64.9204 23.5179 65.3589 23.3403C65.7974 23.1627 66.1908 22.8895 66.5105 22.5406C66.8301 22.1916 67.068 21.7757 67.2069 21.3232C67.3457 20.8706 67.382 20.3927 67.313 19.9243C67.377 19.4578 67.337 18.9829 67.1961 18.5336C67.0551 18.0843 66.8166 17.6718 66.4977 17.3257C66.1787 16.9795 65.7872 16.7082 65.3512 16.5313C64.9152 16.3543 64.4455 16.2761 63.9758 16.3022H62.0678V23.5671Z" fill="#F5F5F5"/>
<path d="M70.6889 21.1742C70.6409 20.6719 70.6983 20.1651 70.8575 19.6863C71.0166 19.2075 71.274 18.7673 71.6131 18.3938C71.9522 18.0204 72.3655 17.7221 72.8265 17.5179C73.2876 17.3137 73.7862 17.2083 74.2903 17.2083C74.7945 17.2083 75.2931 17.3137 75.7541 17.5179C76.2152 17.7221 76.6285 18.0204 76.9676 18.3938C77.3067 18.7673 77.5641 19.2075 77.7232 19.6863C77.8824 20.1651 77.9398 20.6719 77.8918 21.1742C77.9407 21.6771 77.884 22.1846 77.7252 22.6642C77.5665 23.1438 77.3093 23.5848 76.9701 23.959C76.6309 24.3331 76.2173 24.6321 75.7558 24.8367C75.2943 25.0413 74.7951 25.147 74.2903 25.147C73.7856 25.147 73.2864 25.0413 72.8249 24.8367C72.3634 24.6321 71.9498 24.3331 71.6106 23.959C71.2714 23.5848 71.0142 23.1438 70.8554 22.6642C70.6967 22.1846 70.64 21.6771 70.6889 21.1742ZM76.3415 21.1742C76.3415 19.5174 75.5979 18.5484 74.2928 18.5484C72.9828 18.5484 72.2458 19.5174 72.2458 21.1743C72.2458 22.8444 72.9828 23.8059 74.2928 23.8059C75.5979 23.8059 76.3416 22.8378 76.3416 21.1742H76.3415Z" fill="#F5F5F5"/>
<path d="M87.4649 24.9994H85.9015L84.3231 19.3698H84.2039L82.6321 24.9994H81.0836L78.9785 17.3557H80.5072L81.8752 23.1883H81.9879L83.5579 17.3557H85.0038L86.5739 23.1883H86.6931L88.0545 17.3557H89.5617L87.4649 24.9994Z" fill="#F5F5F5"/>
<path d="M91.334 17.3558H92.7848V18.57H92.8974C93.0885 18.1339 93.4107 17.7683 93.8193 17.5242C94.2278 17.2801 94.7022 17.1696 95.1764 17.2082C95.548 17.1802 95.9211 17.2363 96.2681 17.3723C96.6151 17.5082 96.927 17.7206 97.1809 17.9936C97.4347 18.2667 97.624 18.5934 97.7346 18.9495C97.8451 19.3057 97.8742 19.6822 97.8197 20.0512V24.9994H96.3125V20.43C96.3125 19.2016 95.7793 18.5908 94.6646 18.5908C94.4123 18.579 94.1605 18.622 93.9263 18.7167C93.6922 18.8115 93.4813 18.9558 93.3081 19.1398C93.1349 19.3238 93.0035 19.5431 92.9229 19.7827C92.8423 20.0222 92.8144 20.2764 92.8411 20.5278V24.9995H91.334L91.334 17.3558Z" fill="#F5F5F5"/>
<path d="M100.221 14.3718H101.728V24.9994H100.221V14.3718Z" fill="#F5F5F5"/>
<path d="M103.824 21.1744C103.776 20.672 103.833 20.1652 103.992 19.6864C104.151 19.2075 104.409 18.7673 104.748 18.3939C105.087 18.0204 105.501 17.7221 105.962 17.5179C106.423 17.3137 106.921 17.2083 107.425 17.2083C107.93 17.2083 108.428 17.3137 108.889 17.5179C109.35 17.7221 109.764 18.0204 110.103 18.3939C110.442 18.7673 110.699 19.2075 110.859 19.6864C111.018 20.1652 111.075 20.672 111.027 21.1744C111.076 21.6772 111.019 22.1848 110.861 22.6644C110.702 23.1439 110.445 23.585 110.105 23.9591C109.766 24.3332 109.352 24.6322 108.891 24.8368C108.429 25.0414 107.93 25.1471 107.425 25.1471C106.921 25.1471 106.422 25.0414 105.96 24.8368C105.498 24.6322 105.085 24.3332 104.746 23.9591C104.406 23.585 104.149 23.1439 103.99 22.6644C103.832 22.1848 103.775 21.6772 103.824 21.1744ZM109.476 21.1744C109.476 19.5175 108.733 18.5486 107.428 18.5486C106.117 18.5486 105.381 19.5175 105.381 21.1744C105.381 22.8446 106.118 23.806 107.428 23.806C108.733 23.806 109.476 22.8379 109.476 21.1744H109.476Z" fill="#F5F5F5"/>
<path d="M112.611 22.8378C112.611 21.4619 113.635 20.6687 115.452 20.556L117.52 20.4366V19.7769C117.52 18.9696 116.987 18.5137 115.957 18.5137C115.116 18.5137 114.533 18.8229 114.365 19.3633H112.906C113.06 18.0504 114.294 17.2083 116.026 17.2083C117.941 17.2083 119.021 18.1622 119.021 19.7769V24.9995H117.57V23.9253H117.451C117.209 24.3106 116.869 24.6247 116.466 24.8356C116.063 25.0464 115.611 25.1464 115.157 25.1254C114.836 25.1588 114.512 25.1246 114.206 25.0249C113.899 24.9253 113.617 24.7625 113.377 24.5469C113.137 24.3314 112.945 24.068 112.813 23.7736C112.681 23.4792 112.613 23.1604 112.611 22.8378ZM117.52 22.1847V21.5456L115.655 21.665C114.604 21.7354 114.127 22.0935 114.127 22.7674C114.127 23.4553 114.723 23.8556 115.543 23.8556C115.783 23.88 116.026 23.8557 116.256 23.7843C116.487 23.7128 116.701 23.5957 116.885 23.4398C117.07 23.2839 117.221 23.0924 117.33 22.8768C117.439 22.6612 117.504 22.4258 117.52 22.1847Z" fill="#F5F5F5"/>
<path d="M121.002 21.1743C121.002 18.759 122.242 17.2289 124.172 17.2289C124.649 17.2069 125.123 17.3213 125.538 17.5588C125.952 17.7963 126.291 18.147 126.514 18.5699H126.626V14.3718H128.134V24.9994H126.689V23.7918H126.57C126.33 24.2119 125.98 24.5582 125.557 24.7933C125.134 25.0284 124.655 25.1432 124.172 25.1254C122.229 25.1255 121.002 23.5954 121.002 21.1743ZM122.559 21.1743C122.559 22.7955 123.322 23.7711 124.599 23.7711C125.87 23.7711 126.655 22.7814 126.655 21.1809C126.655 19.5878 125.861 18.5841 124.599 18.5841C123.331 18.5841 122.559 19.5663 122.559 21.1743H122.559Z" fill="#F5F5F5"/>
<path d="M134.371 21.1742C134.323 20.6719 134.38 20.1651 134.539 19.6863C134.698 19.2075 134.956 18.7673 135.295 18.3938C135.634 18.0204 136.047 17.7221 136.508 17.5179C136.969 17.3137 137.468 17.2083 137.972 17.2083C138.476 17.2083 138.975 17.3137 139.436 17.5179C139.897 17.7221 140.31 18.0204 140.649 18.3938C140.988 18.7673 141.246 19.2075 141.405 19.6863C141.564 20.1651 141.621 20.6719 141.573 21.1742C141.622 21.6771 141.566 22.1846 141.407 22.6642C141.248 23.1438 140.991 23.5848 140.652 23.959C140.313 24.3331 139.899 24.6321 139.437 24.8367C138.976 25.0413 138.477 25.147 137.972 25.147C137.467 25.147 136.968 25.0413 136.507 24.8367C136.045 24.6321 135.631 24.3331 135.292 23.959C134.953 23.5848 134.696 23.1438 134.537 22.6642C134.378 22.1846 134.322 21.6771 134.371 21.1742ZM140.023 21.1742C140.023 19.5174 139.28 18.5484 137.974 18.5484C136.664 18.5484 135.927 19.5174 135.927 21.1743C135.927 22.8444 136.664 23.8059 137.974 23.8059C139.28 23.8059 140.023 22.8378 140.023 21.1742Z" fill="#F5F5F5"/>
<path d="M143.596 17.3558H145.047V18.57H145.159C145.35 18.1339 145.672 17.7683 146.081 17.5242C146.489 17.2801 146.964 17.1696 147.438 17.2082C147.81 17.1802 148.183 17.2363 148.53 17.3723C148.877 17.5082 149.189 17.7206 149.443 17.9936C149.696 18.2667 149.886 18.5934 149.996 18.9495C150.107 19.3057 150.136 19.6822 150.081 20.0512V24.9994H148.574V20.43C148.574 19.2016 148.041 18.5908 146.926 18.5908C146.674 18.579 146.422 18.622 146.188 18.7167C145.954 18.8115 145.743 18.9558 145.57 19.1398C145.397 19.3238 145.265 19.5431 145.185 19.7827C145.104 20.0222 145.076 20.2764 145.103 20.5278V24.9995H143.596V17.3558Z" fill="#F5F5F5"/>
<path d="M158.596 15.4526V17.3905H160.251V18.6611H158.596V22.5916C158.596 23.3922 158.926 23.7428 159.676 23.7428C159.868 23.7422 160.06 23.7306 160.251 23.708V24.9646C159.98 25.013 159.706 25.0388 159.431 25.0417C157.755 25.0417 157.087 24.4515 157.087 22.9778V18.6611H155.875V17.3904H157.087V15.4526H158.596Z" fill="#F5F5F5"/>
<path d="M162.311 14.3718H163.804V18.5841H163.924C164.124 18.1439 164.455 17.7762 164.872 17.5312C165.288 17.2862 165.771 17.1757 166.252 17.2148C166.622 17.1947 166.991 17.2564 167.334 17.3957C167.678 17.535 167.986 17.7483 168.237 18.0205C168.488 18.2927 168.676 18.617 168.788 18.9703C168.899 19.3236 168.932 19.6972 168.882 20.0644V24.9994H167.374V20.4366C167.374 19.2156 166.805 18.5973 165.741 18.5973C165.482 18.5761 165.221 18.6117 164.977 18.7018C164.733 18.7918 164.512 18.9341 164.329 19.1187C164.146 19.3033 164.005 19.5257 163.917 19.7704C163.829 20.015 163.795 20.2761 163.818 20.5352V24.9994H162.311L162.311 14.3718Z" fill="#F5F5F5"/>
<path d="M177.67 22.9355C177.465 23.6341 177.022 24.2384 176.417 24.6427C175.812 25.0469 175.084 25.2254 174.361 25.1469C173.858 25.1602 173.358 25.0637 172.896 24.8642C172.434 24.6647 172.02 24.367 171.685 23.9916C171.349 23.6162 171.099 23.1722 170.952 22.6904C170.805 22.2086 170.765 21.7006 170.833 21.2016C170.766 20.701 170.808 20.1919 170.954 19.7086C171.101 19.2254 171.35 18.7794 171.684 18.4007C172.017 18.022 172.429 17.7196 172.889 17.5138C173.35 17.3081 173.85 17.2038 174.354 17.2081C176.479 17.2081 177.761 18.6612 177.761 21.0615V21.5878H172.369V21.6724C172.345 21.9529 172.38 22.2352 172.472 22.5013C172.564 22.7674 172.71 23.0113 172.902 23.2175C173.093 23.4237 173.326 23.5875 173.584 23.6985C173.842 23.8095 174.121 23.8653 174.402 23.8621C174.763 23.9055 175.128 23.8405 175.452 23.6755C175.775 23.5105 176.042 23.2529 176.219 22.9355L177.67 22.9355ZM172.369 20.4722H176.226C176.245 20.2156 176.21 19.9579 176.124 19.7157C176.037 19.4734 175.901 19.2519 175.724 19.0654C175.547 18.879 175.333 18.7316 175.096 18.6329C174.858 18.5341 174.603 18.4861 174.346 18.492C174.085 18.4888 173.827 18.5377 173.585 18.6361C173.344 18.7345 173.125 18.8802 172.94 19.0648C172.756 19.2493 172.61 19.4689 172.512 19.7106C172.414 19.9523 172.365 20.2113 172.369 20.4722H172.369Z" fill="#F5F5F5"/>
</g>
<defs>
<clipPath id="clip0">
<rect y="0.0500488" width="202.945" height="67.8998" fill="white"/>
</clipPath>
</defs>
</svg>
