<svg width="41" height="38" viewBox="0 0 36 36" fill="none" xmlns="http://www.w3.org/2000/svg">
<path d="M34.5153 35.3668H27.5244C27.278 35.3668 27.0651 35.2792 26.8859 35.1039C26.7066 34.9287 26.617 34.7126 26.617 34.4556V22.7147C26.617 21.9437 26.5442 21.2894 26.3985 20.7521C26.2529 20.2147 26.0848 19.8175 25.8944 19.5604C25.7039 19.3034 25.463 19.099 25.1718 18.9471C24.8805 18.7952 24.662 18.7135 24.5164 18.7018C24.3707 18.6901 24.1859 18.6843 23.9618 18.6843C23.424 18.6843 22.9423 18.8245 22.5166 19.1048C22.0909 19.3852 21.794 19.6597 21.6259 19.9284C21.4579 20.1971 21.3178 20.4717 21.2058 20.7521C21.161 20.8922 21.1218 21.085 21.0882 21.3303C21.0545 21.5757 21.0377 21.8619 21.0377 22.189V34.4556C21.0377 34.7126 20.9481 34.9346 20.7689 35.1215C20.5896 35.3084 20.3767 35.4018 20.1303 35.4018H13.1394C13.0274 35.4018 12.9154 35.3785 12.8033 35.3318C12.6913 35.285 12.5905 35.2149 12.5008 35.1215C12.3216 34.9346 12.2432 34.7126 12.2656 34.4556V31.2312L12.2824 27.9718L12.2992 24.1867V16.7917L12.2824 14.058L12.2656 12.551C12.2432 12.294 12.3216 12.0662 12.5008 11.8676C12.6801 11.669 12.893 11.5697 13.1394 11.5697H20.1303C20.2647 11.5697 20.388 11.593 20.5 11.6397C20.612 11.6865 20.7072 11.7507 20.7857 11.8325C20.8641 11.9143 20.9257 12.0136 20.9705 12.1304C21.0153 12.2472 21.0377 12.3757 21.0377 12.5159V13.0416C22.4718 11.7098 24.2755 11.0439 26.4489 11.0439C29.2498 11.0439 31.44 12.0019 33.0197 13.9178C34.5993 15.8337 35.3892 18.4857 35.3892 21.8736V34.4556C35.3892 34.5724 35.3667 34.6892 35.3219 34.806C35.2771 34.9229 35.2155 35.0222 35.1371 35.1039C35.0587 35.1857 34.9634 35.25 34.8514 35.2967C34.7394 35.3434 34.6273 35.3668 34.5153 35.3668ZM28.3983 33.5093H33.6078V21.8736C33.6078 19.0231 32.986 16.8209 31.7425 15.2671C30.4989 13.7134 28.7344 12.9365 26.4489 12.9365C24.1186 12.9365 22.3037 13.9412 21.0041 15.9506C20.8921 16.3945 20.612 16.6165 20.1639 16.6165H20.0967C19.7606 16.6165 19.5029 16.4529 19.3236 16.1258C19.1892 15.8922 19.1668 15.6468 19.2564 15.3898V13.4272H14.0469C14.0917 16.0207 14.0917 22.7147 14.0469 33.5093H19.2564V22.189C19.2564 21.2778 19.3573 20.5651 19.5589 20.0511C19.7158 19.6539 19.9062 19.2859 20.1303 18.9471C20.3543 18.6083 20.6064 18.3046 20.8865 18.0359C21.1666 17.7672 21.4691 17.5452 21.794 17.37C22.1189 17.1947 22.4662 17.0546 22.8359 16.9494C23.2056 16.8443 23.5809 16.7917 23.9618 16.7917C24.9029 16.7917 25.7039 17.0254 26.3649 17.4927C27.0259 17.96 27.53 18.6317 27.8773 19.5079C28.2247 20.3841 28.3983 21.453 28.3983 22.7147V33.5093ZM9.27429 35.3668H2.28344C2.03697 35.3668 1.82411 35.2792 1.64485 35.1039C1.4656 34.9287 1.37597 34.7126 1.37597 34.4556V12.5159C1.37597 12.2589 1.4656 12.0369 1.64485 11.85C1.82411 11.6631 2.03697 11.5697 2.28344 11.5697H9.27429C9.52076 11.5697 9.73363 11.6631 9.91288 11.85C10.0921 12.0369 10.1818 12.2589 10.1818 12.5159V34.4556C10.1818 34.6191 10.1425 34.771 10.0641 34.9112C9.9857 35.0514 9.87367 35.1624 9.72802 35.2441C9.58238 35.3259 9.43114 35.3668 9.27429 35.3668ZM3.19091 33.5093H8.40044V13.4272H3.19091V33.5093ZM5.77887 10.4481H5.74526C4.35605 10.4481 3.21331 9.99836 2.31705 9.09881C1.42079 8.19926 0.972656 7.06607 0.972656 5.69922C0.972656 4.33237 1.43199 3.20502 2.35066 2.31715C3.26933 1.42928 4.43447 0.985352 5.84609 0.985352C7.21289 0.985352 8.34442 1.42344 9.24068 2.29963C10.1369 3.17581 10.5963 4.30317 10.6187 5.6817C10.6187 7.06023 10.165 8.19926 9.25749 9.09881C8.35002 9.99836 7.19048 10.4481 5.77887 10.4481ZM5.84609 2.84286C4.92742 2.84286 4.1824 3.10572 3.61103 3.63143C3.03966 4.15714 2.75398 4.85224 2.75398 5.71674C2.75398 6.55788 3.03406 7.24714 3.59423 7.78454C4.15439 8.32193 4.8714 8.59063 5.74526 8.59063H5.77887C6.38384 8.59063 6.916 8.46796 7.37533 8.22263C7.83467 7.9773 8.19317 7.63851 8.45085 7.20626C8.70853 6.77401 8.83736 6.2775 8.83736 5.71674C8.81496 4.85224 8.53487 4.15714 7.99712 3.63143C7.45936 3.10572 6.74235 2.84286 5.84609 2.84286Z" fill="#FF5672"/>
</svg>
