<svg width="40" height="40" viewBox="0 0 40 40" fill="none" xmlns="http://www.w3.org/2000/svg">
<path d="M1.74483 6.33421L7.06986 1.01487C7.71986 0.364955 8.58986 0 9.50987 0C10.4299 0 11.2999 0.359955 11.9499 1.01487L17.6849 6.73916C18.3349 7.38908 18.6999 8.26397 18.6999 9.18385C18.6999 10.1087 18.3399 10.9736 17.6849 11.6285L13.2049 16.113C14.2255 18.4906 15.6919 20.6509 17.5249 22.4772C19.3599 24.322 21.5049 25.7768 23.8849 26.8067L28.3649 22.3222C29.015 21.6723 29.885 21.3073 30.805 21.3073C31.2587 21.3057 31.7083 21.3946 32.1273 21.5688C32.5463 21.7431 32.9263 21.9992 33.245 22.3222L38.985 28.0465C39.635 28.6964 40 29.5713 40 30.4912C40 31.4161 39.64 32.281 38.985 32.9359L33.665 38.2552C32.555 39.3651 31.025 40 29.455 40C29.13 40 28.815 39.975 28.495 39.92C21.8749 38.8302 15.3049 35.3056 9.99987 30.0063C4.69985 24.6969 1.17983 18.1277 0.0798264 11.5036C-0.235176 9.6238 0.394829 7.68904 1.74483 6.33421ZM3.62484 10.9086C4.59985 16.8029 7.76986 22.6822 12.5449 27.4566C17.3199 32.231 23.1949 35.4006 29.09 36.3755C29.83 36.5004 30.59 36.2505 31.13 35.7155L36.355 30.4912L30.815 24.9469L24.8249 30.9461L24.7799 30.9911L23.6999 30.5912C20.4253 29.3874 17.4516 27.486 14.9849 25.0188C12.5183 22.5516 10.6177 19.5776 9.41487 16.303L9.01486 15.2231L15.0549 9.18885L9.51487 3.64454L4.28984 8.86889C3.74984 9.40882 3.49984 10.1687 3.62484 10.9086Z" fill="#FF5672"/>
</svg>
