<svg width="50" height="50" viewBox="0 0 50 50" fill="none" xmlns="http://www.w3.org/2000/svg">
<path d="M27.7727 12.8847C22.2757 12.8847 17.8394 17.3211 17.8394 22.8181C17.8394 28.315 22.2757 32.7514 27.7727 32.7514C33.2697 32.7514 37.706 28.315 37.706 22.8181C37.706 17.3211 33.2697 12.8847 27.7727 12.8847ZM27.7727 29.274C24.2178 29.274 21.3167 26.3729 21.3167 22.8181C21.3167 19.2632 24.2178 16.3621 27.7727 16.3621C31.3276 16.3621 34.2286 19.2632 34.2286 22.8181C34.2286 26.3729 31.3276 29.274 27.7727 29.274ZM38.1128 10.1629C36.8294 10.1629 35.7929 11.1993 35.7929 12.4827C35.7929 13.7662 36.8294 14.8026 38.1128 14.8026C39.3963 14.8026 40.4327 13.771 40.4327 12.4827C40.4331 12.178 40.3733 11.8761 40.2569 11.5945C40.1404 11.3129 39.9696 11.057 39.7541 10.8415C39.5386 10.626 39.2827 10.4551 39.001 10.3387C38.7194 10.2222 38.4176 10.1625 38.1128 10.1629ZM47.1356 22.8181C47.1356 20.1446 47.1598 17.4954 47.0097 14.8268C46.8596 11.7272 46.1525 8.9763 43.8859 6.7097C41.6144 4.43825 38.8683 3.736 35.7687 3.58586C33.0953 3.43572 30.4461 3.45994 27.7775 3.45994C25.1041 3.45994 22.4549 3.43572 19.7863 3.58586C16.6867 3.736 13.9358 4.4431 11.6692 6.7097C9.39773 8.98114 8.69547 11.7272 8.54533 14.8268C8.39519 17.5003 8.41941 20.1495 8.41941 22.8181C8.41941 25.4866 8.39519 28.1407 8.54533 30.8093C8.69547 33.9089 9.40257 36.6598 11.6692 38.9264C13.9406 41.1978 16.6867 41.9001 19.7863 42.0502C22.4597 42.2004 25.1089 42.1762 27.7775 42.1762C30.4509 42.1762 33.1001 42.2004 35.7687 42.0502C38.8683 41.9001 41.6193 41.193 43.8859 38.9264C46.1573 36.655 46.8596 33.9089 47.0097 30.8093C47.1647 28.1407 47.1356 25.4915 47.1356 22.8181ZM42.8736 34.2382C42.5201 35.1197 42.0939 35.7783 41.411 36.4564C40.7281 37.1393 40.0743 37.5655 39.1928 37.919C36.6453 38.9312 30.5962 38.7036 27.7727 38.7036C24.9491 38.7036 18.8952 38.9312 16.3477 37.9239C15.4662 37.5703 14.8075 37.1441 14.1295 36.4612C13.4466 35.7784 13.0204 35.1245 12.6669 34.2431C11.6595 31.6907 11.8871 25.6416 11.8871 22.8181C11.8871 19.9945 11.6595 13.9405 12.6669 11.393C13.0204 10.5116 13.4466 9.85291 14.1295 9.17487C14.8124 8.49682 15.4662 8.06578 16.3477 7.71223C18.8952 6.70485 24.9491 6.93248 27.7727 6.93248C30.5962 6.93248 36.6502 6.70485 39.1977 7.71223C40.0791 8.06578 40.7378 8.49198 41.4159 9.17487C42.0987 9.85775 42.5249 10.5116 42.8785 11.393C43.8859 13.9405 43.6582 19.9945 43.6582 22.8181C43.6582 25.6416 43.8859 31.6907 42.8736 34.2382Z" fill="#FF5672"/>
</svg>
