<svg width="48" height="47" viewBox="0 0 48 47" fill="none" xmlns="http://www.w3.org/2000/svg">
<path d="M42.0425 9.67032C42.0424 9.37404 41.9661 9.08304 41.8214 8.8269C41.6766 8.57076 41.4685 8.3586 41.2182 8.21196C40.9679 8.06533 40.6843 7.98946 40.3963 7.99204C40.1082 7.99463 39.826 8.07559 39.5782 8.2267C38.6226 8.81222 37.5937 9.26065 36.52 9.55953C34.9875 8.20701 33.033 7.46696 31.0138 7.47467C28.7988 7.4774 26.6715 8.36541 25.0811 9.95119C23.4907 11.537 22.5617 13.6964 22.4901 15.9736C18.1227 15.2574 14.1644 12.9126 11.3701 9.38663C11.2017 9.17675 10.9868 9.01155 10.7434 8.90493C10.5 8.7983 10.2353 8.75338 9.97148 8.77393C9.70775 8.79638 9.4533 8.88453 9.23011 9.03076C9.00691 9.17699 8.82168 9.37691 8.6904 9.61325C8.01726 10.8217 7.63068 12.1764 7.56206 13.5674C7.49344 14.9583 7.74471 16.3463 8.29547 17.6187L8.2922 17.6203C8.04412 17.7771 7.83939 17.9969 7.69764 18.2585C7.5559 18.5201 7.4819 18.8148 7.48276 19.1143C7.48014 19.3607 7.49487 19.607 7.52682 19.8512C7.69348 21.963 8.60331 23.9398 10.0857 25.4109C9.98512 25.6081 9.92378 25.824 9.90529 26.046C9.88679 26.2679 9.91151 26.4914 9.978 26.7034C10.6242 28.7751 11.9988 30.5242 13.8327 31.6084C11.9693 32.3494 9.95727 32.6077 7.97397 32.3604C7.60707 32.3135 7.23554 32.3961 6.92024 32.5947C6.60494 32.7933 6.36456 33.0962 6.23846 33.4537C6.11237 33.8112 6.10804 34.2022 6.22617 34.5626C6.34431 34.9229 6.57792 35.2314 6.88873 35.4373C10.2998 37.6968 14.2715 38.8979 18.3287 38.897C22.9295 38.9503 27.4185 37.4381 31.0974 34.5957C34.7763 31.7532 37.4388 27.7399 38.6709 23.18C39.2469 21.1937 39.5409 19.1324 39.544 17.0597L39.5423 16.7239C40.3945 15.7785 41.0545 14.6677 41.4839 13.4564C41.9132 12.2452 42.1031 10.958 42.0425 9.67032ZM36.6473 15.0621C36.3774 15.3898 36.2407 15.8118 36.2654 16.2405C36.2817 16.5175 36.2801 16.7961 36.2801 17.0597C36.2766 18.8108 36.0271 20.5522 35.5392 22.2299C34.5334 26.1102 32.2906 29.5311 29.1702 31.9447C26.0497 34.3582 22.2321 35.6247 18.3287 35.5414C16.927 35.5416 15.5303 35.372 14.1672 35.0362C15.9057 34.4594 17.5312 33.5706 18.9684 32.4108C19.2334 32.1965 19.4274 31.903 19.5237 31.5707C19.62 31.2384 19.6139 30.8836 19.5062 30.555C19.3985 30.2264 19.1946 29.9402 18.9224 29.7356C18.6501 29.5311 18.323 29.4183 17.986 29.4127C16.6294 29.3909 15.334 28.8282 14.3728 27.8432C14.6165 27.7962 14.8586 27.7374 15.099 27.6669C15.4516 27.5639 15.7601 27.3417 15.975 27.0363C16.1898 26.7308 16.2984 26.3599 16.2834 25.9832C16.2683 25.6066 16.1304 25.2461 15.8919 24.9598C15.6533 24.6736 15.3281 24.4783 14.9685 24.4054C14.1811 24.2454 13.4401 23.9007 12.8033 23.3982C12.1664 22.8957 11.6508 22.2489 11.2966 21.508C11.5916 21.5495 11.8885 21.5753 12.186 21.5853C12.5396 21.5912 12.8859 21.4812 13.1747 21.2712C13.4634 21.0611 13.6796 20.7619 13.7919 20.4169C13.8997 20.0691 13.8942 19.6945 13.7764 19.3501C13.6586 19.0057 13.4349 18.7102 13.1391 18.5083C12.4209 18.0166 11.8326 17.3493 11.4267 16.5662C11.0208 15.7831 10.8102 14.9087 10.8136 14.0213C10.8136 13.9105 10.8168 13.7981 10.8234 13.689C14.4813 17.1984 19.2261 19.2671 24.2216 19.5306C24.4739 19.5405 24.725 19.4912 24.956 19.3865C25.187 19.2818 25.3918 19.1244 25.5549 18.9263C25.7165 18.727 25.831 18.4918 25.8893 18.2393C25.9477 17.9867 25.9483 17.7237 25.8911 17.4709C25.7977 17.0701 25.75 16.6594 25.7491 16.2472C25.7509 14.8115 26.3061 13.4352 27.293 12.42C28.28 11.4048 29.618 10.8337 31.0138 10.8319C31.7321 10.8298 32.443 10.9808 33.1017 11.2755C33.7604 11.5702 34.3525 12.0022 34.8407 12.5441C35.0289 12.7525 35.2659 12.9078 35.5289 12.9954C35.792 13.083 36.0725 13.0998 36.3437 13.0444C37.0141 12.9103 37.675 12.7297 38.3216 12.5039C37.8807 13.4318 37.3173 14.2927 36.6473 15.0621Z" fill="#FF5672"/>
</svg>
