<svg width="52" height="41" viewBox="0 0 41 30" fill="none" xmlns="http://www.w3.org/2000/svg">
<path d="M41.0009 15.3537C41.0009 15.4536 41.0009 15.5671 40.9964 15.6988C40.9918 16.0665 40.9827 16.4797 40.9737 16.9201C40.9373 18.1869 40.8738 19.4492 40.7739 20.6388C40.6377 22.2779 40.4379 23.6446 40.1655 24.6707C39.878 25.7416 39.3144 26.7182 38.5312 27.5031C37.748 28.2879 36.7725 28.8534 35.7022 29.1431C34.4172 29.4881 31.9018 29.7015 28.3603 29.8332C26.6757 29.8968 24.8732 29.9377 23.0706 29.9604C22.4395 29.9694 21.8538 29.974 21.3271 29.9785H19.9922C19.4655 29.974 18.8798 29.9694 18.2486 29.9604C16.4461 29.9377 14.6435 29.8968 12.959 29.8332C9.41745 29.697 6.89749 29.4836 5.61708 29.1431C4.54644 28.8541 3.57055 28.2888 2.78721 27.5039C2.00386 26.719 1.44058 25.7419 1.1538 24.6707C0.876836 23.6446 0.681596 22.2779 0.545382 20.6388C0.445492 19.4492 0.381926 18.1869 0.345602 16.9201C0.331981 16.4797 0.32744 16.0665 0.3229 15.6988C0.3229 15.5671 0.318359 15.4536 0.318359 15.3537V15.0994C0.318359 14.9995 0.318359 14.886 0.3229 14.7543C0.32744 14.3866 0.336521 13.9734 0.345602 13.533C0.381926 12.2662 0.445492 11.0039 0.545382 9.81432C0.681596 8.17521 0.881377 6.80853 1.1538 5.78239C1.73498 3.60751 3.4422 1.89121 5.61708 1.31003C6.89749 0.964958 9.41745 0.751558 12.959 0.619884C14.6435 0.556318 16.4461 0.515451 18.2486 0.492748C18.8798 0.483667 19.4655 0.479126 19.9922 0.474586H21.3271C21.8538 0.479126 22.4395 0.483667 23.0706 0.492748C24.8732 0.515451 26.6757 0.556318 28.3603 0.619884C31.9018 0.756098 34.4218 0.969498 35.7022 1.31003C37.8771 1.89121 39.5843 3.60297 40.1655 5.78239C40.4424 6.80853 40.6377 8.17521 40.7739 9.81432C40.8738 11.0039 40.9373 12.2662 40.9737 13.533C40.9873 13.9734 40.9918 14.3866 40.9964 14.7543C40.9964 14.886 41.0009 14.9995 41.0009 15.0994V15.3537ZM37.7318 15.1176C37.7318 15.0222 37.7318 14.9178 37.7272 14.7952C37.7227 14.4411 37.7136 14.0506 37.7045 13.6283C37.6727 12.4205 37.6092 11.2128 37.5138 10.0913C37.3912 8.62926 37.2187 7.43057 37.0053 6.62691C36.7238 5.57807 35.8974 4.74716 34.8531 4.47019C33.8996 4.21593 31.4977 4.01161 28.2331 3.88902C26.5804 3.82545 24.8005 3.78458 23.0252 3.76188C22.4032 3.7528 21.8265 3.74826 21.3089 3.74826H20.0103L18.294 3.76188C16.5187 3.78458 14.7434 3.82545 13.0861 3.88902C9.82155 4.01615 7.4151 4.21593 6.46614 4.47019C5.42184 4.7517 4.59547 5.57807 4.31397 6.62691C4.10056 7.43057 3.92803 8.62926 3.80543 10.0913C3.71008 11.2128 3.65106 12.4205 3.61474 13.6283C3.60111 14.0506 3.59657 14.4456 3.59203 14.7952C3.59203 14.9178 3.58749 15.0268 3.58749 15.1176V15.3355C3.58749 15.4309 3.58749 15.5353 3.59203 15.6579C3.59657 16.0121 3.60565 16.4025 3.61474 16.8248C3.64652 18.0326 3.71008 19.2403 3.80543 20.3618C3.92803 21.8238 4.10056 23.0225 4.31397 23.8262C4.59547 24.875 5.42184 25.7059 6.46614 25.9829C7.41964 26.2372 9.82155 26.4415 13.0861 26.5641C14.7389 26.6277 16.5187 26.6685 18.294 26.6912C18.9161 26.7003 19.4927 26.7048 20.0103 26.7048H21.3089L23.0252 26.6912C24.8005 26.6685 26.5759 26.6277 28.2331 26.5641C31.4977 26.437 33.9042 26.2372 34.8531 25.9829C35.8974 25.7014 36.7238 24.875 37.0053 23.8262C37.2187 23.0225 37.3912 21.8238 37.5138 20.3618C37.6092 19.2403 37.6682 18.0326 37.7045 16.8248C37.7181 16.4025 37.7227 16.0075 37.7272 15.6579C37.7272 15.5353 37.7318 15.4263 37.7318 15.3355V15.1176ZM16.6186 9.14233L27.1525 15.272L16.6186 21.3108V9.14233Z" fill="#FF5672"/>
</svg>
